<svg width="62" height="76" viewBox="0 0 62 76" fill="none" xmlns="http://www.w3.org/2000/svg">
<path d="M11.8078 75.9998C5.28638 75.9998 0 70.7134 0 64.192C0 57.1101 5.741 51.3691 12.8229 51.3691H23.6156V64.192C23.6164 70.7126 18.3292 75.9998 11.8078 75.9998Z" fill="#FBBB00"/>
<path d="M61.6994 25.841C61.6994 37.2492 55.2166 47.0801 42.4832 50.2657C39.6512 50.9838 36.5157 51.3686 33.0773 51.3686H23.7223V27.0949H23.6518C23.6518 27.0949 23.6419 27.0949 23.6312 27.0949C22.8623 27.0039 22.0836 26.9636 21.295 26.9636C10.22 26.9636 1.12762 35.4192 0.105957 46.2103V10.8682C0.105957 4.86539 4.97219 0 10.975 0H33.0781C52.0096 0 61.6994 10.6294 61.6994 25.841Z" fill="#FBBB00"/>
</svg>
